<svg width="302" height="49" viewBox="0 0 302 49" fill="none" xmlns="http://www.w3.org/2000/svg">
<path d="M0 0.461914H135.863V48.9603H0V0.461914Z" fill="#FF531D"/>
<rect x="101.897" y="19.0923" width="6.43915" height="21.567" rx="3.21958" fill="white"/>
<rect x="118.417" y="8.00635" width="6.46646" height="26.4007" rx="3.23323" transform="rotate(90 118.417 8.00635)" fill="white"/>
<rect x="57.124" y="19.2461" width="6.43915" height="21.567" rx="3.21958" fill="white"/>
<path d="M77.4128 23.0239C76.6395 21.6299 74.9472 21.0282 73.4669 21.621C71.7119 22.3238 70.966 24.398 71.8717 26.0567L78.8603 38.8549C79.7131 40.4166 81.676 40.9883 83.234 40.1288C84.7848 39.2733 85.3455 37.3243 84.4863 35.7756L77.4128 23.0239Z" fill="white"/>
<path d="M74.4735 20.6313C72.6517 20.6313 71.1748 22.1082 71.1748 23.9301C71.1748 26.0087 73.074 27.5692 75.1131 27.1662L77.5091 26.6926C78.8351 26.4305 79.8321 25.3294 79.9614 23.9839C80.1343 22.1866 78.7213 20.6313 76.9158 20.6313H76.3469H74.4735Z" fill="white"/>
<path d="M74.895 8.00635C76.0739 8.00635 77.158 8.65244 77.7189 9.68935C78.8762 11.8286 77.3272 14.4277 74.895 14.4277H60.3344C58.5612 14.4277 57.1237 12.9902 57.1237 11.217C57.1237 9.44382 58.5612 8.00635 60.3344 8.00635H74.895Z" fill="white"/>
<path d="M83.3322 17.5521C83.3322 22.824 80.2449 27.9489 73.9536 27.2518C70.4799 26.8668 73.1846 24.858 74.88 21.5551C75.5333 20.2823 78.045 21.5551 78.045 17.5521C78.045 13.5491 74.757 15.0319 74.4168 14.0879C65.1154 14.0879 70.4085 8.00635 74.6092 8.00635C79.8531 8.00635 83.3322 12.2801 83.3322 17.5521Z" fill="white"/>
<rect width="6.43499" height="21.5811" rx="3.21749" transform="matrix(0.875603 0.483031 -0.485083 0.874468 24.2773 19.7217)" fill="white"/>
<rect width="6.4356" height="35.0013" rx="3.2178" transform="matrix(-0.894979 0.446109 0.44809 0.893989 35.4014 8.00635)" fill="white"/>
<ellipse cx="32.2668" cy="31.8707" rx="3.55097" ry="3.54115" fill="white"/>
<path d="M153.851 39V11H165.971C168.478 11 170.638 11.4133 172.451 12.24C174.265 13.04 175.665 14.2 176.651 15.72C177.638 17.24 178.131 19.0533 178.131 21.16C178.131 23.24 177.638 25.04 176.651 26.56C175.665 28.08 174.265 29.2533 172.451 30.08C170.638 30.88 168.478 31.28 165.971 31.28H157.451L160.331 28.36V39H153.851ZM160.331 29.08L157.451 26H165.611C167.611 26 169.105 25.5733 170.091 24.72C171.078 23.8667 171.571 22.68 171.571 21.16C171.571 19.6133 171.078 18.4133 170.091 17.56C169.105 16.7067 167.611 16.28 165.611 16.28H157.451L160.331 13.2V29.08ZM182.758 39V11H189.238V33.72H203.278V39H182.758ZM203.374 39L215.854 11H222.254L234.774 39H227.974L217.734 14.28H220.294L210.014 39H203.374ZM209.614 33L211.334 28.08H225.734L227.494 33H209.614ZM250.689 39.48C248.529 39.48 246.515 39.1333 244.649 38.44C242.809 37.72 241.209 36.7067 239.849 35.4C238.489 34.0933 237.422 32.56 236.649 30.8C235.902 29.04 235.529 27.1067 235.529 25C235.529 22.8933 235.902 20.96 236.649 19.2C237.422 17.44 238.489 15.9067 239.849 14.6C241.235 13.2933 242.849 12.2933 244.689 11.6C246.529 10.88 248.542 10.52 250.729 10.52C253.155 10.52 255.342 10.9467 257.289 11.8C259.262 12.6267 260.915 13.8533 262.249 15.48L258.089 19.32C257.129 18.2267 256.062 17.4133 254.889 16.88C253.715 16.32 252.435 16.04 251.049 16.04C249.742 16.04 248.542 16.2533 247.449 16.68C246.355 17.1067 245.409 17.72 244.609 18.52C243.809 19.32 243.182 20.2667 242.729 21.36C242.302 22.4533 242.089 23.6667 242.089 25C242.089 26.3333 242.302 27.5467 242.729 28.64C243.182 29.7333 243.809 30.68 244.609 31.48C245.409 32.28 246.355 32.8933 247.449 33.32C248.542 33.7467 249.742 33.96 251.049 33.96C252.435 33.96 253.715 33.6933 254.889 33.16C256.062 32.6 257.129 31.76 258.089 30.64L262.249 34.48C260.915 36.1067 259.262 37.3467 257.289 38.2C255.342 39.0533 253.142 39.48 250.689 39.48ZM272.585 22.28H286.065V27.32H272.585V22.28ZM273.065 33.8H288.305V39H266.625V11H287.785V16.2H273.065V33.8Z" fill="#252525"/>
</svg>
